<?xml version="1.0" encoding="utf-8" ?>
<!DOCTYPE svg PUBLIC "-//W3C//DTD SVG 1.1//EN" "http://www.w3.org/Graphics/SVG/1.1/DTD/svg11.dtd">
<svg height="2010" version="1.1" width="2508" xmlns="http://www.w3.org/2000/svg">
<rect fill="#ffffff" height="1296" stroke="#ffffff" stroke-width="1" width="144" x="1390" y="167"/>
<rect fill="none" height="1296" stroke="#000000" stroke-width="1" width="144" x="1390" y="167"/>
<text font-family="Dialog" font-size="12" x="1440" y="180">
Person</text>
<rect fill="#000000" height="1" stroke="#000000" stroke-width="1" width="144" x="1390" y="190"/>
<text font-family="Dialog" font-size="12" x="1394" y="204">
name : String</text>
<text font-family="Dialog" font-size="12" x="1394" y="220">
vorname : String</text>
<text font-family="Dialog" font-size="12" x="1394" y="236">
bemerkungen : String</text>
<text font-family="Dialog" font-size="12" x="1394" y="252">
bild : Image</text>
<rect fill="#000000" height="1" stroke="#000000" stroke-width="1" width="144" x="1390" y="851"/>
<rect fill="#ffffff" height="1136" stroke="#ffffff" stroke-width="1" width="160" x="382" y="167"/>
<rect fill="none" height="1136" stroke="#000000" stroke-width="1" width="160" x="382" y="167"/>
<text font-family="Dialog" font-size="12" x="442" y="180">
Einsitz</text>
<rect fill="#000000" height="1" stroke="#000000" stroke-width="1" width="160" x="382" y="190"/>
<text font-family="Dialog" font-size="12" x="386" y="204">
bemerkungen : String</text>
<rect fill="#000000" height="1" stroke="#000000" stroke-width="1" width="160" x="382" y="747"/>
<polyline fill="none" points="541,1271 1390,1271" stroke="#333399" stroke-width="1"/>
<line fill="#333399" stroke="#333399" stroke-width="1" x1="1378" x2="1390" y1="1278" y2="1271"/>
<line fill="#333399" stroke="#333399" stroke-width="1" x1="1378" x2="1390" y1="1264" y2="1271"/>
<text font-family="Dialog" font-size="12" x="545" y="1266">
0..*</text>
<text font-family="Dialog" font-size="12" x="1373" y="1262">
1</text>
<text font-family="Dialog" font-size="12" x="1348" y="1288">
person</text>
<rect fill="#ffffff" height="144" stroke="#ffffff" stroke-width="1" width="176" x="974" y="823"/>
<rect fill="none" height="144" stroke="#000000" stroke-width="1" width="176" x="974" y="823"/>
<text font-family="Dialog" font-size="12" x="1036" y="836">
Bindung</text>
<rect fill="#000000" height="1" stroke="#000000" stroke-width="1" width="176" x="974" y="846"/>
<rect fill="#000000" height="1" stroke="#000000" stroke-width="1" width="176" x="974" y="906"/>
<polyline fill="none" points="1149,887 1390,887" stroke="#333399" stroke-width="1"/>
<line fill="#333399" stroke="#333399" stroke-width="1" x1="1378" x2="1390" y1="894" y2="887"/>
<line fill="#333399" stroke="#333399" stroke-width="1" x1="1378" x2="1390" y1="880" y2="887"/>
<text font-family="Dialog" font-size="12" x="1153" y="882">
0..*</text>
<text font-family="Dialog" font-size="12" x="1148" y="902">
bindung</text>
<text font-family="Dialog" font-size="12" x="1344" y="902">
person</text>
<rect fill="#ffffff" height="192" stroke="#ffffff" stroke-width="1" width="144" x="670" y="167"/>
<rect fill="none" height="192" stroke="#000000" stroke-width="1" width="144" x="670" y="167"/>
<text font-family="Dialog" font-size="12" x="687" y="180">
ParteiAssociation</text>
<rect fill="#000000" height="1" stroke="#000000" stroke-width="1" width="144" x="670" y="190"/>
<rect fill="#000000" height="1" stroke="#000000" stroke-width="1" width="144" x="670" y="274"/>
<polyline fill="none" points="670,263 541,263" stroke="#333399" stroke-width="1"/>
<line fill="#333399" stroke="#333399" stroke-width="1" x1="658" x2="670" y1="270" y2="263"/>
<line fill="#333399" stroke="#333399" stroke-width="1" x1="658" x2="670" y1="256" y2="263"/>
<text font-family="Dialog" font-size="12" x="644" y="258">
0..*</text>
<text font-family="Dialog" font-size="12" x="599" y="277">
parteiassoc</text>
<rect fill="#ffffff" height="80" stroke="#ffffff" stroke-width="1" width="368" x="718" y="487"/>
<rect fill="none" height="80" stroke="#000000" stroke-width="1" width="368" x="718" y="487"/>
<text font-family="Dialog" font-size="12" x="875" y="500">
Funktion</text>
<rect fill="#000000" height="1" stroke="#000000" stroke-width="1" width="368" x="718" y="510"/>
<text font-family="Dialog" font-size="12" x="722" y="524">
bezeichnung : String</text>
<rect fill="#000000" height="1" stroke="#000000" stroke-width="1" width="368" x="718" y="539"/>
<polyline fill="none" points="718,527 541,527" stroke="#333399" stroke-width="1"/>
<line fill="#333399" stroke="#333399" stroke-width="1" x1="706" x2="718" y1="534" y2="527"/>
<line fill="#333399" stroke="#333399" stroke-width="1" x1="706" x2="718" y1="520" y2="527"/>
<text font-family="Dialog" font-size="12" x="692" y="522">
0..*</text>
<text font-family="Dialog" font-size="12" x="659" y="542">
funktion</text>
<rect fill="#ffffff" height="96" stroke="#ffffff" stroke-width="1" width="160" x="1662" y="279"/>
<rect fill="none" height="96" stroke="#000000" stroke-width="1" width="160" x="1662" y="279"/>
<text font-family="Dialog" font-size="12" x="1715" y="292">
Wohnort</text>
<rect fill="#000000" height="1" stroke="#000000" stroke-width="1" width="160" x="1662" y="302"/>
<text font-family="Dialog" font-size="12" x="1666" y="316">
postleitzahl : String</text>
<text font-family="Dialog" font-size="12" x="1666" y="332">
gemeindename : String</text>
<rect fill="#000000" height="1" stroke="#000000" stroke-width="1" width="160" x="1662" y="347"/>
<polyline fill="none" points="1662,327 1533,327" stroke="#333399" stroke-width="1"/>
<line fill="#333399" stroke="#333399" stroke-width="1" x1="1650" x2="1662" y1="334" y2="327"/>
<line fill="#333399" stroke="#333399" stroke-width="1" x1="1650" x2="1662" y1="320" y2="327"/>
<text font-family="Dialog" font-size="12" x="1636" y="322">
0..*</text>
<text font-family="Dialog" font-size="12" x="1613" y="342">
wohnort</text>
<rect fill="#ffffff" height="88" stroke="#ffffff" stroke-width="1" width="136" x="1662" y="167"/>
<rect fill="none" height="88" stroke="#000000" stroke-width="1" width="136" x="1662" y="167"/>
<text font-family="Dialog" font-size="12" x="1696" y="180">
Buergerort</text>
<rect fill="#000000" height="1" stroke="#000000" stroke-width="1" width="136" x="1662" y="190"/>
<text font-family="Dialog" font-size="12" x="1666" y="204">
bezeichnung : String</text>
<rect fill="#000000" height="1" stroke="#000000" stroke-width="1" width="136" x="1662" y="223"/>
<polyline fill="none" points="1662,215 1533,215" stroke="#333399" stroke-width="1"/>
<line fill="#333399" stroke="#333399" stroke-width="1" x1="1650" x2="1662" y1="222" y2="215"/>
<line fill="#333399" stroke="#333399" stroke-width="1" x1="1650" x2="1662" y1="208" y2="215"/>
<text font-family="Dialog" font-size="12" x="1636" y="210">
0..*</text>
<text font-family="Dialog" font-size="12" x="1604" y="230">
buergerort</text>
<rect fill="#ffffff" height="96" stroke="#ffffff" stroke-width="1" width="488" x="742" y="1015"/>
<rect fill="none" height="96" stroke="#000000" stroke-width="1" width="488" x="742" y="1015"/>
<text font-family="Dialog" font-size="12" x="956" y="1028">
Zivilstand</text>
<rect fill="#000000" height="1" stroke="#000000" stroke-width="1" width="488" x="742" y="1038"/>
<text font-family="Dialog" font-size="12" x="746" y="1052">
bezeichnung : String</text>
<rect fill="#000000" height="1" stroke="#000000" stroke-width="1" width="488" x="742" y="1075"/>
<polyline fill="none" points="1229,1095 1390,1095" stroke="#333399" stroke-width="1"/>
<line fill="#333399" stroke="#333399" stroke-width="1" x1="1378" x2="1390" y1="1102" y2="1095"/>
<line fill="#333399" stroke="#333399" stroke-width="1" x1="1378" x2="1390" y1="1088" y2="1095"/>
<text font-family="Dialog" font-size="12" x="1233" y="1090">
0..*</text>
<text font-family="Dialog" font-size="12" x="1363" y="1090">
0..1</text>
<text font-family="Dialog" font-size="12" x="1333" y="1113">
partner1</text>
<rect fill="#ffffff" height="66" stroke="#ffffff" stroke-width="1" width="1440" x="382" y="39"/>
<rect fill="none" height="66" stroke="#000000" stroke-width="1" width="1440" x="382" y="39"/>
<text font-family="Dialog" font-size="12" x="1043" y="52">
Datum_Intervall_ed</text>
<rect fill="#000000" height="1" stroke="#000000" stroke-width="1" width="1440" x="382" y="62"/>
<rect fill="#000000" height="1" stroke="#000000" stroke-width="1" width="1440" x="382" y="83"/>
<polyline fill="none" points="1462,167 1462,104" stroke="#333399" stroke-width="1"/>
<polygon fill="#ffffff" points="1462,104 1469,116 1455,116" stroke="#ffffff" stroke-width="1"/>
<polygon fill="none" points="1462,104 1469,116 1455,116" stroke="#333399" stroke-width="1"/>
<rect fill="#ffffff" height="66" stroke="#ffffff" stroke-width="1" width="112" x="2174" y="39"/>
<rect fill="none" height="66" stroke="#000000" stroke-width="1" width="112" x="2174" y="39"/>
<text font-family="Dialog" font-size="12" x="2209" y="52">
Datum</text>
<rect fill="#000000" height="1" stroke="#000000" stroke-width="1" width="112" x="2174" y="62"/>
<rect fill="#000000" height="1" stroke="#000000" stroke-width="1" width="112" x="2174" y="83"/>
<polyline fill="none" points="2079,95 2174,95" stroke="#333399" stroke-width="1"/>
<line fill="#333399" stroke="#333399" stroke-width="1" x1="2162" x2="2174" y1="102" y2="95"/>
<line fill="#333399" stroke="#333399" stroke-width="1" x1="2162" x2="2174" y1="88" y2="95"/>
<text font-family="Dialog" font-size="12" x="2114" y="112">
datum_ex</text>
<polyline fill="none" points="2079,47 2174,47" stroke="#333399" stroke-width="1"/>
<line fill="#333399" stroke="#333399" stroke-width="1" x1="2162" x2="2174" y1="54" y2="47"/>
<line fill="#333399" stroke="#333399" stroke-width="1" x1="2162" x2="2174" y1="40" y2="47"/>
<text font-family="Dialog" font-size="12" x="2114" y="62">
datum_in</text>
<rect fill="#ffffff" height="66" stroke="#ffffff" stroke-width="1" width="96" x="2398" y="39"/>
<rect fill="none" height="66" stroke="#000000" stroke-width="1" width="96" x="2398" y="39"/>
<text font-family="Dialog" font-size="12" x="2423" y="52">
Integer</text>
<rect fill="#000000" height="1" stroke="#000000" stroke-width="1" width="96" x="2398" y="62"/>
<rect fill="#000000" height="1" stroke="#000000" stroke-width="1" width="96" x="2398" y="83"/>
<polyline fill="none" points="2285,47 2398,47" stroke="#333399" stroke-width="1"/>
<line fill="#333399" stroke="#333399" stroke-width="1" x1="2386" x2="2398" y1="54" y2="47"/>
<line fill="#333399" stroke="#333399" stroke-width="1" x1="2386" x2="2398" y1="40" y2="47"/>
<text font-family="Dialog" font-size="12" x="2361" y="62">
jahr</text>
<polyline fill="none" points="2285,71 2398,71" stroke="#333399" stroke-width="1"/>
<line fill="#333399" stroke="#333399" stroke-width="1" x1="2386" x2="2398" y1="78" y2="71"/>
<line fill="#333399" stroke="#333399" stroke-width="1" x1="2386" x2="2398" y1="64" y2="71"/>
<text font-family="Dialog" font-size="12" x="2354" y="86">
monat</text>
<polyline fill="none" points="2285,95 2398,95" stroke="#333399" stroke-width="1"/>
<line fill="#333399" stroke="#333399" stroke-width="1" x1="2386" x2="2398" y1="102" y2="95"/>
<line fill="#333399" stroke="#333399" stroke-width="1" x1="2386" x2="2398" y1="88" y2="95"/>
<text font-family="Dialog" font-size="12" x="2362" y="110">
tag</text>
<polyline fill="none" points="1214,1015 1214,104" stroke="#333399" stroke-width="1"/>
<polygon fill="#ffffff" points="1214,104 1221,116 1207,116" stroke="#ffffff" stroke-width="1"/>
<polygon fill="none" points="1214,104 1221,116 1207,116" stroke="#333399" stroke-width="1"/>
<polyline fill="none" points="1734,167 1734,104" stroke="#333399" stroke-width="1"/>
<polygon fill="#ffffff" points="1734,104 1741,116 1727,116" stroke="#ffffff" stroke-width="1"/>
<polygon fill="none" points="1734,104 1741,116 1727,116" stroke="#333399" stroke-width="1"/>
<polyline fill="none" points="1806,279 1806,104" stroke="#333399" stroke-width="1"/>
<polygon fill="#ffffff" points="1806,104 1813,116 1799,116" stroke="#ffffff" stroke-width="1"/>
<polygon fill="none" points="1806,104 1813,116 1799,116" stroke="#333399" stroke-width="1"/>
<polyline fill="none" points="1134,823 1134,104" stroke="#333399" stroke-width="1"/>
<polygon fill="#ffffff" points="1134,104 1141,116 1127,116" stroke="#ffffff" stroke-width="1"/>
<polygon fill="none" points="1134,104 1141,116 1127,116" stroke="#333399" stroke-width="1"/>
<polyline fill="none" points="470,167 470,104" stroke="#333399" stroke-width="1"/>
<polygon fill="#ffffff" points="470,104 477,116 463,116" stroke="#ffffff" stroke-width="1"/>
<polygon fill="none" points="470,104 477,116 463,116" stroke="#333399" stroke-width="1"/>
<polyline fill="none" points="750,167 750,104" stroke="#333399" stroke-width="1"/>
<polygon fill="#ffffff" points="750,104 757,116 743,116" stroke="#ffffff" stroke-width="1"/>
<polygon fill="none" points="750,104 757,116 743,116" stroke="#333399" stroke-width="1"/>
<polyline fill="none" points="1069,487 1069,104" stroke="#333399" stroke-width="1"/>
<polygon fill="#ffffff" points="1069,104 1076,116 1062,116" stroke="#ffffff" stroke-width="1"/>
<polygon fill="none" points="1069,104 1076,116 1062,116" stroke="#333399" stroke-width="1"/>
<rect fill="#ffffff" height="80" stroke="#ffffff" stroke-width="1" width="144" x="1662" y="407"/>
<rect fill="none" height="80" stroke="#000000" stroke-width="1" width="144" x="1662" y="407"/>
<text font-family="Dialog" font-size="12" x="1717" y="420">
Beruf</text>
<rect fill="#000000" height="1" stroke="#000000" stroke-width="1" width="144" x="1662" y="430"/>
<text font-family="Dialog" font-size="12" x="1666" y="444">
bezeichnung : String</text>
<rect fill="#000000" height="1" stroke="#000000" stroke-width="1" width="144" x="1662" y="459"/>
<polyline fill="none" points="1533,447 1662,447" stroke="#333399" stroke-width="1"/>
<line fill="#333399" stroke="#333399" stroke-width="1" x1="1650" x2="1662" y1="454" y2="447"/>
<line fill="#333399" stroke="#333399" stroke-width="1" x1="1650" x2="1662" y1="440" y2="447"/>
<text font-family="Dialog" font-size="12" x="1636" y="442">
0..*</text>
<text font-family="Dialog" font-size="12" x="1622" y="462">
beruf</text>
<rect fill="#ffffff" height="80" stroke="#ffffff" stroke-width="1" width="144" x="1662" y="519"/>
<rect fill="none" height="80" stroke="#000000" stroke-width="1" width="144" x="1662" y="519"/>
<text font-family="Dialog" font-size="12" x="1674" y="532">
Akademischer_Titel</text>
<rect fill="#000000" height="1" stroke="#000000" stroke-width="1" width="144" x="1662" y="542"/>
<text font-family="Dialog" font-size="12" x="1666" y="556">
bezeichnung : String</text>
<rect fill="#000000" height="1" stroke="#000000" stroke-width="1" width="144" x="1662" y="571"/>
<polyline fill="none" points="1533,559 1662,559" stroke="#333399" stroke-width="1"/>
<line fill="#333399" stroke="#333399" stroke-width="1" x1="1650" x2="1662" y1="566" y2="559"/>
<line fill="#333399" stroke="#333399" stroke-width="1" x1="1650" x2="1662" y1="552" y2="559"/>
<text font-family="Dialog" font-size="12" x="1636" y="554">
0..*</text>
<text font-family="Dialog" font-size="12" x="1608" y="574">
akad_titel</text>
<rect fill="#ffffff" height="80" stroke="#ffffff" stroke-width="1" width="144" x="1662" y="631"/>
<rect fill="none" height="80" stroke="#000000" stroke-width="1" width="144" x="1662" y="631"/>
<text font-family="Dialog" font-size="12" x="1700" y="644">
Konfession</text>
<rect fill="#000000" height="1" stroke="#000000" stroke-width="1" width="144" x="1662" y="654"/>
<text font-family="Dialog" font-size="12" x="1666" y="668">
bezeichnung : String</text>
<rect fill="#000000" height="1" stroke="#000000" stroke-width="1" width="144" x="1662" y="683"/>
<polyline fill="none" points="1533,671 1662,671" stroke="#333399" stroke-width="1"/>
<line fill="#333399" stroke="#333399" stroke-width="1" x1="1650" x2="1662" y1="678" y2="671"/>
<line fill="#333399" stroke="#333399" stroke-width="1" x1="1650" x2="1662" y1="664" y2="671"/>
<text font-family="Dialog" font-size="12" x="1635" y="666">
0..1</text>
<text font-family="Dialog" font-size="12" x="1604" y="686">
konfession</text>
<rect fill="#ffffff" height="80" stroke="#ffffff" stroke-width="1" width="144" x="1662" y="743"/>
<rect fill="none" height="80" stroke="#000000" stroke-width="1" width="144" x="1662" y="743"/>
<text font-family="Dialog" font-size="12" x="1699" y="756">
Dienstgrad</text>
<rect fill="#000000" height="1" stroke="#000000" stroke-width="1" width="144" x="1662" y="766"/>
<text font-family="Dialog" font-size="12" x="1666" y="780">
bezeichnung : String</text>
<rect fill="#000000" height="1" stroke="#000000" stroke-width="1" width="144" x="1662" y="795"/>
<polyline fill="none" points="1533,783 1662,783" stroke="#333399" stroke-width="1"/>
<line fill="#333399" stroke="#333399" stroke-width="1" x1="1650" x2="1662" y1="790" y2="783"/>
<line fill="#333399" stroke="#333399" stroke-width="1" x1="1650" x2="1662" y1="776" y2="783"/>
<text font-family="Dialog" font-size="12" x="1630" y="777">
0..1</text>
<text font-family="Dialog" font-size="12" x="1604" y="798">
dienstgrad</text>
<rect fill="#ffffff" height="464" stroke="#ffffff" stroke-width="1" width="208" x="14" y="167"/>
<rect fill="none" height="464" stroke="#000000" stroke-width="1" width="208" x="14" y="167"/>
<text font-family="Dialog" font-size="12" x="107" y="180">
Rat</text>
<rect fill="#000000" height="1" stroke="#000000" stroke-width="1" width="208" x="14" y="190"/>
<text font-family="Dialog" font-size="12" x="18" y="204">
bezeichnung : String</text>
<rect fill="#000000" height="1" stroke="#000000" stroke-width="1" width="208" x="14" y="411"/>
<polyline fill="none" points="382,383 221,383" stroke="#333399" stroke-width="1"/>
<line fill="#333399" stroke="#333399" stroke-width="1" x1="370" x2="382" y1="390" y2="383"/>
<line fill="#333399" stroke="#333399" stroke-width="1" x1="370" x2="382" y1="376" y2="383"/>
<text font-family="Dialog" font-size="12" x="354" y="378">
1..*</text>
<text font-family="Dialog" font-size="12" x="339" y="398">
einsitz</text>
<text font-family="Dialog" font-size="12" x="232" y="378">
1</text>
<text font-family="Dialog" font-size="12" x="235" y="398">
rat</text>
<rect fill="#ffffff" height="69" stroke="#ffffff" stroke-width="1" width="144" x="670" y="391"/>
<rect fill="none" height="69" stroke="#000000" stroke-width="1" width="144" x="670" y="391"/>
<text font-family="Dialog" font-size="12" x="712" y="404">
Wahlkreis</text>
<rect fill="#000000" height="1" stroke="#000000" stroke-width="1" width="144" x="670" y="414"/>
<text font-family="Dialog" font-size="12" x="674" y="428">
bezeichnung : String</text>
<rect fill="#000000" height="1" stroke="#000000" stroke-width="1" width="144" x="670" y="438"/>
<polyline fill="none" points="541,423 670,423" stroke="#333399" stroke-width="1"/>
<line fill="#333399" stroke="#333399" stroke-width="1" x1="658" x2="670" y1="430" y2="423"/>
<line fill="#333399" stroke="#333399" stroke-width="1" x1="658" x2="670" y1="416" y2="423"/>
<text font-family="Dialog" font-size="12" x="651" y="418">
1</text>
<text font-family="Dialog" font-size="12" x="617" y="438">
wahlkreis</text>
<rect fill="#ffffff" height="80" stroke="#ffffff" stroke-width="1" width="144" x="910" y="167"/>
<rect fill="none" height="80" stroke="#000000" stroke-width="1" width="144" x="910" y="167"/>
<text font-family="Dialog" font-size="12" x="956" y="180">
Fraktion</text>
<rect fill="#000000" height="1" stroke="#000000" stroke-width="1" width="144" x="910" y="190"/>
<text font-family="Dialog" font-size="12" x="914" y="204">
bezeichnung : String</text>
<rect fill="#000000" height="1" stroke="#000000" stroke-width="1" width="144" x="910" y="219"/>
<polyline fill="none" points="813,207 910,207" stroke="#333399" stroke-width="1"/>
<line fill="#333399" stroke="#333399" stroke-width="1" x1="898" x2="910" y1="214" y2="207"/>
<line fill="#333399" stroke="#333399" stroke-width="1" x1="898" x2="910" y1="200" y2="207"/>
<text font-family="Dialog" font-size="12" x="862" y="222">
fraktion</text>
<polyline fill="none" points="1390,1031 1229,1031" stroke="#333399" stroke-width="1"/>
<line fill="#333399" stroke="#333399" stroke-width="1" x1="1378" x2="1390" y1="1038" y2="1031"/>
<line fill="#333399" stroke="#333399" stroke-width="1" x1="1378" x2="1390" y1="1024" y2="1031"/>
<text font-family="Dialog" font-size="12" x="1371" y="1026">
1</text>
<text font-family="Dialog" font-size="12" x="1330" y="1045">
partner0</text>
<text font-family="Dialog" font-size="12" x="1234" y="1024">
0..*</text>
<rect fill="#ffffff" height="80" stroke="#ffffff" stroke-width="1" width="144" x="606" y="823"/>
<rect fill="none" height="80" stroke="#000000" stroke-width="1" width="144" x="606" y="823"/>
<text font-family="Dialog" font-size="12" x="646" y="836">
Institution</text>
<rect fill="#000000" height="1" stroke="#000000" stroke-width="1" width="144" x="606" y="846"/>
<text font-family="Dialog" font-size="12" x="610" y="860">
bezeichnung : String</text>
<rect fill="#000000" height="1" stroke="#000000" stroke-width="1" width="144" x="606" y="875"/>
<polyline fill="none" points="974,870 749,870" stroke="#333399" stroke-width="1"/>
<line fill="#333399" stroke="#333399" stroke-width="1" x1="962" x2="974" y1="877" y2="870"/>
<line fill="#333399" stroke="#333399" stroke-width="1" x1="962" x2="974" y1="863" y2="870"/>
<text font-family="Dialog" font-size="12" x="952" y="864">
1..*</text>
<text font-family="Dialog" font-size="12" x="933" y="885">
bindung</text>
<text font-family="Dialog" font-size="12" x="760" y="865">
1</text>
<ellipse cx="862" cy="868" fill="#000000" rx="0.5" ry="0.5" stroke="#000000" stroke-width="1"/>
<ellipse cx="863" cy="869" fill="#ffffff" rx="-0.5" ry="-0.5" stroke="#ffffff" stroke-width="1"/>
<rect fill="#ffffff" height="80" stroke="#ffffff" stroke-width="1" width="144" x="790" y="887"/>
<rect fill="none" height="80" stroke="#000000" stroke-width="1" width="144" x="790" y="887"/>
<text font-family="Dialog" font-size="12" x="803" y="900">
Bindungskategorie</text>
<rect fill="#000000" height="1" stroke="#000000" stroke-width="1" width="144" x="790" y="910"/>
<text font-family="Dialog" font-size="12" x="794" y="924">
bezeichnung : String</text>
<rect fill="#000000" height="1" stroke="#000000" stroke-width="1" width="144" x="790" y="939"/>
<rect fill="#ffffff" height="85" stroke="#ffffff" stroke-width="1" width="144" x="910" y="279"/>
<rect fill="none" height="85" stroke="#000000" stroke-width="1" width="144" x="910" y="279"/>
<text font-family="Dialog" font-size="12" x="963" y="292">
Partei</text>
<rect fill="#000000" height="1" stroke="#000000" stroke-width="1" width="144" x="910" y="302"/>
<text font-family="Dialog" font-size="12" x="914" y="316">
bezeichnung : String</text>
<rect fill="#000000" height="1" stroke="#000000" stroke-width="1" width="144" x="910" y="334"/>
<polyline fill="none" points="813,319 910,319" stroke="#333399" stroke-width="1"/>
<line fill="#333399" stroke="#333399" stroke-width="1" x1="898" x2="910" y1="326" y2="319"/>
<line fill="#333399" stroke="#333399" stroke-width="1" x1="898" x2="910" y1="312" y2="319"/>
<text font-family="Dialog" font-size="12" x="868" y="334">
partei</text>
<rect fill="#ffffff" height="66" stroke="#ffffff" stroke-width="1" width="130" x="1950" y="39"/>
<rect fill="none" height="66" stroke="#000000" stroke-width="1" width="130" x="1950" y="39"/>
<text font-family="Dialog" font-size="12" x="1967" y="52">
Datum_Intervall</text>
<rect fill="#000000" height="1" stroke="#000000" stroke-width="1" width="130" x="1950" y="62"/>
<rect fill="#000000" height="1" stroke="#000000" stroke-width="1" width="130" x="1950" y="83"/>
<polyline fill="none" points="1821,71 1950,71" stroke="#333399" stroke-width="1"/>
<line fill="#333399" stroke="#333399" stroke-width="1" x1="1938" x2="1950" y1="78" y2="71"/>
<line fill="#333399" stroke="#333399" stroke-width="1" x1="1938" x2="1950" y1="64" y2="71"/>
<text font-family="Dialog" font-size="12" x="1877" y="87">
zeitintervall</text>
<rect fill="#ffffff" height="66" stroke="#ffffff" stroke-width="1" width="96" x="1358" y="1511"/>
<rect fill="none" height="66" stroke="#000000" stroke-width="1" width="96" x="1358" y="1511"/>
<text font-family="Dialog" font-size="12" x="1375" y="1524">
Person_m</text>
<rect fill="#000000" height="1" stroke="#000000" stroke-width="1" width="96" x="1358" y="1534"/>
<rect fill="#000000" height="1" stroke="#000000" stroke-width="1" width="96" x="1358" y="1555"/>
<polyline fill="none" points="1422,1511 1422,1462" stroke="#333399" stroke-width="1"/>
<polygon fill="#ffffff" points="1422,1462 1429,1474 1415,1474" stroke="#ffffff" stroke-width="1"/>
<polygon fill="none" points="1422,1462 1429,1474 1415,1474" stroke="#333399" stroke-width="1"/>
<rect fill="#ffffff" height="66" stroke="#ffffff" stroke-width="1" width="94" x="1470" y="1511"/>
<rect fill="none" height="66" stroke="#000000" stroke-width="1" width="94" x="1470" y="1511"/>
<text font-family="Dialog" font-size="12" x="1487" y="1524">
Person_w</text>
<rect fill="#000000" height="1" stroke="#000000" stroke-width="1" width="94" x="1470" y="1534"/>
<rect fill="#000000" height="1" stroke="#000000" stroke-width="1" width="94" x="1470" y="1555"/>
<polyline fill="none" points="1502,1511 1502,1462" stroke="#333399" stroke-width="1"/>
<polygon fill="#ffffff" points="1502,1462 1509,1474 1495,1474" stroke="#ffffff" stroke-width="1"/>
<polygon fill="none" points="1502,1462 1509,1474 1495,1474" stroke="#333399" stroke-width="1"/>
<rect fill="#ffffff" height="66" stroke="#ffffff" stroke-width="1" width="80" x="742" y="1159"/>
<rect fill="none" height="66" stroke="#000000" stroke-width="1" width="80" x="742" y="1159"/>
<text font-family="Dialog" font-size="12" x="765" y="1172">
Ledig</text>
<rect fill="#000000" height="1" stroke="#000000" stroke-width="1" width="80" x="742" y="1182"/>
<rect fill="#000000" height="1" stroke="#000000" stroke-width="1" width="80" x="742" y="1203"/>
<polyline fill="none" points="782,1159 782,1110" stroke="#333399" stroke-width="1"/>
<polygon fill="#ffffff" points="782,1110 789,1122 775,1122" stroke="#ffffff" stroke-width="1"/>
<polygon fill="none" points="782,1110 789,1122 775,1122" stroke="#333399" stroke-width="1"/>
<rect fill="#ffffff" height="66" stroke="#ffffff" stroke-width="1" width="96" x="838" y="1160"/>
<rect fill="none" height="66" stroke="#000000" stroke-width="1" width="96" x="838" y="1160"/>
<text font-family="Dialog" font-size="12" x="850" y="1173">
Verheiratet</text>
<rect fill="#000000" height="1" stroke="#000000" stroke-width="1" width="96" x="838" y="1183"/>
<rect fill="#000000" height="1" stroke="#000000" stroke-width="1" width="96" x="838" y="1204"/>
<polyline fill="none" points="886,1160 886,1110" stroke="#333399" stroke-width="1"/>
<polygon fill="#ffffff" points="886,1110 893,1122 879,1122" stroke="#ffffff" stroke-width="1"/>
<polygon fill="none" points="886,1110 893,1122 879,1122" stroke="#333399" stroke-width="1"/>
<rect fill="#ffffff" height="66" stroke="#ffffff" stroke-width="1" width="80" x="950" y="1159"/>
<rect fill="none" height="66" stroke="#000000" stroke-width="1" width="80" x="950" y="1159"/>
<text font-family="Dialog" font-size="12" x="962" y="1172">
Getrennt</text>
<rect fill="#000000" height="1" stroke="#000000" stroke-width="1" width="80" x="950" y="1182"/>
<rect fill="#000000" height="1" stroke="#000000" stroke-width="1" width="80" x="950" y="1203"/>
<polyline fill="none" points="990,1159 990,1110" stroke="#333399" stroke-width="1"/>
<polygon fill="#ffffff" points="990,1110 997,1122 983,1122" stroke="#ffffff" stroke-width="1"/>
<polygon fill="none" points="990,1110 997,1122 983,1122" stroke="#333399" stroke-width="1"/>
<rect fill="#ffffff" height="66" stroke="#ffffff" stroke-width="1" width="78" x="1150" y="1159"/>
<rect fill="none" height="66" stroke="#000000" stroke-width="1" width="78" x="1150" y="1159"/>
<text font-family="Dialog" font-size="12" x="1159" y="1172">
Verwitwet</text>
<rect fill="#000000" height="1" stroke="#000000" stroke-width="1" width="78" x="1150" y="1182"/>
<rect fill="#000000" height="1" stroke="#000000" stroke-width="1" width="78" x="1150" y="1203"/>
<polyline fill="none" points="1190,1159 1190,1110" stroke="#333399" stroke-width="1"/>
<polygon fill="#ffffff" points="1190,1110 1197,1122 1183,1122" stroke="#ffffff" stroke-width="1"/>
<polygon fill="none" points="1190,1110 1197,1122 1183,1122" stroke="#333399" stroke-width="1"/>
<rect fill="#ffffff" height="66" stroke="#ffffff" stroke-width="1" width="80" x="1046" y="1159"/>
<rect fill="none" height="66" stroke="#000000" stroke-width="1" width="80" x="1046" y="1159"/>
<text font-family="Dialog" font-size="12" x="1049" y="1172">
Geschieden</text>
<rect fill="#000000" height="1" stroke="#000000" stroke-width="1" width="80" x="1046" y="1182"/>
<rect fill="#000000" height="1" stroke="#000000" stroke-width="1" width="80" x="1046" y="1203"/>
<polyline fill="none" points="1086,1159 1086,1110" stroke="#333399" stroke-width="1"/>
<polygon fill="#ffffff" points="1086,1110 1093,1122 1079,1122" stroke="#ffffff" stroke-width="1"/>
<polygon fill="none" points="1086,1110 1093,1122 1079,1122" stroke="#333399" stroke-width="1"/>
<line fill="#000000" stroke="#000000" stroke-width="1" x1="926" x2="926" y1="871" y2="871"/>
<rect fill="#ffffff" height="67" stroke="#ffffff" stroke-width="1" width="111" x="750" y="695"/>
<rect fill="none" height="67" stroke="#000000" stroke-width="1" width="111" x="750" y="695"/>
<text font-family="Dialog" font-size="12" x="755" y="708">
1. Vizepr채sidium</text>
<rect fill="#000000" height="1" stroke="#000000" stroke-width="1" width="111" x="750" y="718"/>
<rect fill="#000000" height="1" stroke="#000000" stroke-width="1" width="111" x="750" y="739"/>
<polyline fill="none" points="814,695 814,566" stroke="#333399" stroke-width="1"/>
<polygon fill="#ffffff" points="814,566 821,578 807,578" stroke="#ffffff" stroke-width="1"/>
<polygon fill="none" points="814,566 821,578 807,578" stroke="#333399" stroke-width="1"/>
<rect fill="#ffffff" height="67" stroke="#ffffff" stroke-width="1" width="111" x="878" y="695"/>
<rect fill="none" height="67" stroke="#000000" stroke-width="1" width="111" x="878" y="695"/>
<text font-family="Dialog" font-size="12" x="883" y="708">
2. Vizepr채sidium</text>
<rect fill="#000000" height="1" stroke="#000000" stroke-width="1" width="111" x="878" y="718"/>
<rect fill="#000000" height="1" stroke="#000000" stroke-width="1" width="111" x="878" y="739"/>
<polyline fill="none" points="926,695 926,566" stroke="#333399" stroke-width="1"/>
<polygon fill="#ffffff" points="926,566 933,578 919,578" stroke="#ffffff" stroke-width="1"/>
<polygon fill="none" points="926,566 933,578 919,578" stroke="#333399" stroke-width="1"/>
<rect fill="#ffffff" height="66" stroke="#ffffff" stroke-width="1" width="112" x="942" y="599"/>
<rect fill="none" height="66" stroke="#000000" stroke-width="1" width="112" x="942" y="599"/>
<text font-family="Dialog" font-size="12" x="953" y="612">
B체rgermeister</text>
<rect fill="#000000" height="1" stroke="#000000" stroke-width="1" width="112" x="942" y="622"/>
<rect fill="#000000" height="1" stroke="#000000" stroke-width="1" width="112" x="942" y="643"/>
<polyline fill="none" points="998,599 998,566" stroke="#333399" stroke-width="1"/>
<polygon fill="#ffffff" points="998,566 1005,578 991,578" stroke="#ffffff" stroke-width="1"/>
<polygon fill="none" points="998,566 1005,578 991,578" stroke="#333399" stroke-width="1"/>
<rect fill="#ffffff" height="66" stroke="#ffffff" stroke-width="1" width="80" x="830" y="599"/>
<rect fill="none" height="66" stroke="#000000" stroke-width="1" width="80" x="830" y="599"/>
<text font-family="Dialog" font-size="12" x="839" y="612">
Pr채sidium</text>
<rect fill="#000000" height="1" stroke="#000000" stroke-width="1" width="80" x="830" y="622"/>
<rect fill="#000000" height="1" stroke="#000000" stroke-width="1" width="80" x="830" y="643"/>
<polyline fill="none" points="870,599 870,566" stroke="#333399" stroke-width="1"/>
<polygon fill="#ffffff" points="870,566 877,578 863,578" stroke="#ffffff" stroke-width="1"/>
<polygon fill="none" points="870,566 877,578 863,578" stroke="#333399" stroke-width="1"/>
<rect fill="#ffffff" height="66" stroke="#ffffff" stroke-width="1" width="80" x="1006" y="695"/>
<rect fill="none" height="66" stroke="#000000" stroke-width="1" width="80" x="1006" y="695"/>
<text font-family="Dialog" font-size="12" x="1016" y="708">
Staatsrat</text>
<rect fill="#000000" height="1" stroke="#000000" stroke-width="1" width="80" x="1006" y="718"/>
<rect fill="#000000" height="1" stroke="#000000" stroke-width="1" width="80" x="1006" y="739"/>
<polyline fill="none" points="1070,695 1070,566" stroke="#333399" stroke-width="1"/>
<polygon fill="#ffffff" points="1070,566 1077,578 1063,578" stroke="#ffffff" stroke-width="1"/>
<polygon fill="none" points="1070,566 1077,578 1063,578" stroke="#333399" stroke-width="1"/>
<rect fill="#ffffff" height="66" stroke="#ffffff" stroke-width="1" width="80" x="718" y="599"/>
<rect fill="none" height="66" stroke="#000000" stroke-width="1" width="80" x="718" y="599"/>
<text font-family="Dialog" font-size="12" x="734" y="612">
Mitglied</text>
<rect fill="#000000" height="1" stroke="#000000" stroke-width="1" width="80" x="718" y="622"/>
<rect fill="#000000" height="1" stroke="#000000" stroke-width="1" width="80" x="718" y="643"/>
<polyline fill="none" points="758,599 758,566" stroke="#333399" stroke-width="1"/>
<polygon fill="#ffffff" points="758,566 765,578 751,578" stroke="#ffffff" stroke-width="1"/>
<polygon fill="none" points="758,566 765,578 751,578" stroke="#333399" stroke-width="1"/>
<rect fill="#ffffff" height="320" stroke="#ffffff" stroke-width="1" width="224" x="382" y="1383"/>
<rect fill="none" height="320" stroke="#000000" stroke-width="1" width="224" x="382" y="1383"/>
<text font-family="Dialog" font-size="12" x="394" y="1396">
prov:Person_generation_activity</text>
<rect fill="#000000" height="1" stroke="#000000" stroke-width="1" width="224" x="382" y="1406"/>
<rect fill="#000000" height="1" stroke="#000000" stroke-width="1" width="224" x="382" y="1554"/>
<polyline fill="none" points="605,1399 1390,1399" stroke="#333399" stroke-width="1"/>
<line fill="#333399" stroke="#333399" stroke-width="1" x1="1378" x2="1390" y1="1406" y2="1399"/>
<line fill="#333399" stroke="#333399" stroke-width="1" x1="1378" x2="1390" y1="1392" y2="1399"/>
<text font-family="Dialog" font-size="12" x="1323" y="1415">
generated</text>
<rect fill="#ffffff" height="560" stroke="#ffffff" stroke-width="1" width="144" x="1118" y="1431"/>
<rect fill="none" height="560" stroke="#000000" stroke-width="1" width="144" x="1118" y="1431"/>
<text font-family="Dialog" font-size="12" x="1145" y="1444">
copula:Person</text>
<rect fill="#000000" height="1" stroke="#000000" stroke-width="1" width="144" x="1118" y="1454"/>
<rect fill="#000000" height="1" stroke="#000000" stroke-width="1" width="144" x="1118" y="1722"/>
<polyline fill="none" points="1261,1447 1390,1447" stroke="#333399" stroke-width="1"/>
<line fill="#333399" stroke="#333399" stroke-width="1" x1="1378" x2="1390" y1="1454" y2="1447"/>
<line fill="#333399" stroke="#333399" stroke-width="1" x1="1378" x2="1390" y1="1440" y2="1447"/>
<text font-family="Dialog" font-size="12" x="1311" y="1461">
eq_real_krdb</text>
<rect fill="#ffffff" height="66" stroke="#ffffff" stroke-width="1" width="144" x="1390" y="1639"/>
<rect fill="none" height="66" stroke="#000000" stroke-width="1" width="144" x="1390" y="1639"/>
<text font-family="Dialog" font-size="12" x="1426" y="1652">
gnd:Person</text>
<rect fill="#000000" height="1" stroke="#000000" stroke-width="1" width="144" x="1390" y="1662"/>
<rect fill="#000000" height="1" stroke="#000000" stroke-width="1" width="144" x="1390" y="1683"/>
<polyline fill="none" points="1261,1671 1390,1671" stroke="#333399" stroke-width="1"/>
<line fill="#333399" stroke="#333399" stroke-width="1" x1="1378" x2="1390" y1="1678" y2="1671"/>
<line fill="#333399" stroke="#333399" stroke-width="1" x1="1378" x2="1390" y1="1664" y2="1671"/>
<text font-family="Dialog" font-size="12" x="1315" y="1685">
eq_real_gnd</text>
<rect fill="#ffffff" height="66" stroke="#ffffff" stroke-width="1" width="144" x="1390" y="1735"/>
<rect fill="none" height="66" stroke="#000000" stroke-width="1" width="144" x="1390" y="1735"/>
<text font-family="Dialog" font-size="12" x="1427" y="1748">
viaf:Person</text>
<rect fill="#000000" height="1" stroke="#000000" stroke-width="1" width="144" x="1390" y="1758"/>
<rect fill="#000000" height="1" stroke="#000000" stroke-width="1" width="144" x="1390" y="1779"/>
<polyline fill="none" points="1261,1768 1390,1768" stroke="#333399" stroke-width="1"/>
<line fill="#333399" stroke="#333399" stroke-width="1" x1="1378" x2="1390" y1="1775" y2="1768"/>
<line fill="#333399" stroke="#333399" stroke-width="1" x1="1378" x2="1390" y1="1761" y2="1768"/>
<text font-family="Dialog" font-size="12" x="1313" y="1783">
eq_real_viaf</text>
<rect fill="#ffffff" height="69" stroke="#ffffff" stroke-width="1" width="240" x="734" y="1415"/>
<rect fill="none" height="69" stroke="#000000" stroke-width="1" width="240" x="734" y="1415"/>
<text font-family="Dialog" font-size="12" x="834" y="1428">
Quelle</text>
<rect fill="#000000" height="1" stroke="#000000" stroke-width="1" width="240" x="734" y="1438"/>
<text font-family="Dialog" font-size="12" x="738" y="1452">
quellen_angabe : String</text>
<rect fill="#000000" height="1" stroke="#000000" stroke-width="1" width="240" x="734" y="1462"/>
<polyline fill="none" points="605,1663 734,1663" stroke="#333399" stroke-width="1"/>
<line fill="#333399" stroke="#333399" stroke-width="1" x1="722" x2="734" y1="1670" y2="1663"/>
<line fill="#333399" stroke="#333399" stroke-width="1" x1="722" x2="734" y1="1656" y2="1663"/>
<text font-family="Dialog" font-size="12" x="648" y="1679">
person_quelle</text>
<rect fill="#ffffff" height="80" stroke="#ffffff" stroke-width="1" width="176" x="734" y="1511"/>
<rect fill="none" height="80" stroke="#000000" stroke-width="1" width="176" x="734" y="1511"/>
<text font-family="Dialog" font-size="12" x="767" y="1524">
Person_bildquelle</text>
<rect fill="#000000" height="1" stroke="#000000" stroke-width="1" width="176" x="734" y="1534"/>
<rect fill="#000000" height="1" stroke="#000000" stroke-width="1" width="176" x="734" y="1562"/>
<polyline fill="none" points="830,1511 830,1483" stroke="#333399" stroke-width="1"/>
<polygon fill="#ffffff" points="830,1483 837,1495 823,1495" stroke="#ffffff" stroke-width="1"/>
<polygon fill="none" points="830,1483 837,1495 823,1495" stroke="#333399" stroke-width="1"/>
<rect fill="#ffffff" height="80" stroke="#ffffff" stroke-width="1" width="207" x="734" y="1623"/>
<rect fill="none" height="80" stroke="#000000" stroke-width="1" width="207" x="734" y="1623"/>
<text font-family="Dialog" font-size="12" x="793" y="1636">
Person_quelle</text>
<rect fill="#000000" height="1" stroke="#000000" stroke-width="1" width="207" x="734" y="1646"/>
<rect fill="#000000" height="1" stroke="#000000" stroke-width="1" width="207" x="734" y="1674"/>
<polyline fill="none" points="926,1623 926,1483" stroke="#333399" stroke-width="1"/>
<polygon fill="#ffffff" points="926,1483 933,1495 919,1495" stroke="#ffffff" stroke-width="1"/>
<polygon fill="none" points="926,1483 933,1495 919,1495" stroke="#333399" stroke-width="1"/>
<polyline fill="none" points="605,1551 734,1551" stroke="#333399" stroke-width="1"/>
<line fill="#333399" stroke="#333399" stroke-width="1" x1="722" x2="734" y1="1558" y2="1551"/>
<line fill="#333399" stroke="#333399" stroke-width="1" x1="722" x2="734" y1="1544" y2="1551"/>
<text font-family="Dialog" font-size="12" x="672" y="1569">
bildquelle</text>
<rect fill="#ffffff" height="560" stroke="#ffffff" stroke-width="1" width="208" x="14" y="1239"/>
<rect fill="none" height="560" stroke="#000000" stroke-width="1" width="208" x="14" y="1239"/>
<text font-family="Dialog" font-size="12" x="21" y="1252">
prov:Einsitz_generation_activity</text>
<rect fill="#000000" height="1" stroke="#000000" stroke-width="1" width="208" x="14" y="1262"/>
<rect fill="#000000" height="1" stroke="#000000" stroke-width="1" width="208" x="14" y="1530"/>
<polyline fill="none" points="221,1271 382,1271" stroke="#333399" stroke-width="1"/>
<line fill="#333399" stroke="#333399" stroke-width="1" x1="370" x2="382" y1="1278" y2="1271"/>
<line fill="#333399" stroke="#333399" stroke-width="1" x1="370" x2="382" y1="1264" y2="1271"/>
<text font-family="Dialog" font-size="12" x="316" y="1286">
generated</text>
<rect fill="#ffffff" height="72" stroke="#ffffff" stroke-width="1" width="210" x="766" y="1735"/>
<rect fill="none" height="72" stroke="#000000" stroke-width="1" width="210" x="766" y="1735"/>
<text font-family="Dialog" font-size="12" x="829" y="1748">
Einsitz_quelle</text>
<rect fill="#000000" height="1" stroke="#000000" stroke-width="1" width="210" x="766" y="1758"/>
<rect fill="#000000" height="1" stroke="#000000" stroke-width="1" width="210" x="766" y="1782"/>
<polyline fill="none" points="221,1767 766,1767" stroke="#333399" stroke-width="1"/>
<line fill="#333399" stroke="#333399" stroke-width="1" x1="754" x2="766" y1="1774" y2="1767"/>
<line fill="#333399" stroke="#333399" stroke-width="1" x1="754" x2="766" y1="1760" y2="1767"/>
<text font-family="Dialog" font-size="12" x="680" y="1782">
einsitz_quelle</text>
<polyline fill="none" points="958,1735 958,1483" stroke="#333399" stroke-width="1"/>
<polygon fill="#ffffff" points="958,1483 965,1495 951,1495" stroke="#ffffff" stroke-width="1"/>
<polygon fill="none" points="958,1483 965,1495 951,1495" stroke="#333399" stroke-width="1"/>
<rect fill="#ffffff" height="69" stroke="#ffffff" stroke-width="1" width="144" x="1390" y="1831"/>
<rect fill="none" height="69" stroke="#000000" stroke-width="1" width="144" x="1390" y="1831"/>
<text font-family="Dialog" font-size="12" x="1408" y="1844">
copula:Matrikelzh</text>
<rect fill="#000000" height="1" stroke="#000000" stroke-width="1" width="144" x="1390" y="1854"/>
<text font-family="Dialog" font-size="12" x="1394" y="1868">
id : String</text>
<rect fill="#000000" height="1" stroke="#000000" stroke-width="1" width="144" x="1390" y="1878"/>
<polyline fill="none" points="1261,1863 1390,1863" stroke="#333399" stroke-width="1"/>
<line fill="#333399" stroke="#333399" stroke-width="1" x1="1378" x2="1390" y1="1870" y2="1863"/>
<line fill="#333399" stroke="#333399" stroke-width="1" x1="1378" x2="1390" y1="1856" y2="1863"/>
<text font-family="Dialog" font-size="12" x="1275" y="1877">
eq_real_matrikelzh</text>
<rect fill="#ffffff" height="69" stroke="#ffffff" stroke-width="1" width="144" x="1390" y="1927"/>
<rect fill="none" height="69" stroke="#000000" stroke-width="1" width="144" x="1390" y="1927"/>
<text font-family="Dialog" font-size="12" x="1429" y="1940">
copula:Hls</text>
<rect fill="#000000" height="1" stroke="#000000" stroke-width="1" width="144" x="1390" y="1950"/>
<text font-family="Dialog" font-size="12" x="1394" y="1964">
id : String</text>
<rect fill="#000000" height="1" stroke="#000000" stroke-width="1" width="144" x="1390" y="1974"/>
<polyline fill="none" points="1261,1960 1390,1960" stroke="#333399" stroke-width="1"/>
<line fill="#333399" stroke="#333399" stroke-width="1" x1="1378" x2="1390" y1="1967" y2="1960"/>
<line fill="#333399" stroke="#333399" stroke-width="1" x1="1378" x2="1390" y1="1953" y2="1960"/>
<text font-family="Dialog" font-size="12" x="1316" y="1974">
eq_real_hls</text>
</svg>
